G75*
%MOIN*%
%OFA0B0*%
%FSLAX25Y25*%
%IPPOS*%
%LPD*%
%AMOC8*
5,1,8,0,0,1.08239X$1,22.5*
%
%ADD10C,0.00800*%
%ADD11C,0.01000*%
D10*
X0013996Y0043745D02*
X0014696Y0043745D01*
X0015397Y0046247D02*
X0014696Y0046948D01*
X0014696Y0049050D01*
X0018900Y0049050D01*
X0017499Y0049050D02*
X0017499Y0046948D01*
X0016798Y0046247D01*
X0015397Y0046247D01*
X0016098Y0044446D02*
X0016098Y0043745D01*
X0018900Y0043745D01*
X0018900Y0044446D02*
X0018900Y0043044D01*
X0018900Y0055455D02*
X0018900Y0057557D01*
X0018199Y0058257D01*
X0016098Y0058257D01*
X0016098Y0059992D02*
X0016098Y0060693D01*
X0017499Y0062094D01*
X0018900Y0062094D02*
X0016098Y0062094D01*
X0016098Y0063829D02*
X0016098Y0064529D01*
X0017499Y0065931D01*
X0018900Y0065931D02*
X0016098Y0065931D01*
X0016798Y0067732D02*
X0016098Y0068433D01*
X0016098Y0069834D01*
X0016798Y0070535D01*
X0018199Y0070535D01*
X0018900Y0069834D01*
X0018900Y0068433D01*
X0017499Y0067732D02*
X0017499Y0070535D01*
X0018199Y0072336D02*
X0016798Y0072336D01*
X0016098Y0073037D01*
X0016098Y0075138D01*
X0016798Y0076940D02*
X0016098Y0077641D01*
X0016098Y0079742D01*
X0020301Y0079742D01*
X0018900Y0079742D02*
X0018900Y0077641D01*
X0018199Y0076940D01*
X0016798Y0076940D01*
X0014696Y0075138D02*
X0018900Y0075138D01*
X0018900Y0073037D01*
X0018199Y0072336D01*
X0017499Y0067732D02*
X0016798Y0067732D01*
X0020301Y0056856D02*
X0020301Y0056156D01*
X0019601Y0055455D01*
X0016098Y0055455D01*
X0016098Y0081544D02*
X0016098Y0083646D01*
X0016798Y0084346D01*
X0017499Y0083646D01*
X0017499Y0082245D01*
X0018199Y0081544D01*
X0018900Y0082245D01*
X0018900Y0084346D01*
X0018900Y0086148D02*
X0018900Y0088250D01*
X0018199Y0088950D01*
X0017499Y0088250D01*
X0017499Y0086148D01*
X0016798Y0086148D02*
X0018900Y0086148D01*
X0016798Y0086148D02*
X0016098Y0086848D01*
X0016098Y0088250D01*
X0015397Y0090752D02*
X0016798Y0090752D01*
X0017499Y0091452D01*
X0017499Y0093554D01*
X0017499Y0092153D02*
X0018900Y0090752D01*
X0018900Y0093554D02*
X0014696Y0093554D01*
X0014696Y0091452D01*
X0015397Y0090752D01*
X0016098Y0099893D02*
X0016098Y0100594D01*
X0017499Y0101995D01*
X0018900Y0101995D02*
X0016098Y0101995D01*
X0016798Y0103796D02*
X0016098Y0104497D01*
X0016098Y0105898D01*
X0016798Y0106599D01*
X0018199Y0106599D01*
X0018900Y0105898D01*
X0018900Y0104497D01*
X0018199Y0103796D01*
X0016798Y0103796D01*
X0016798Y0108267D02*
X0016798Y0109668D01*
X0015397Y0108967D02*
X0014696Y0108267D01*
X0015397Y0108967D02*
X0018900Y0108967D01*
X0022196Y0105831D02*
X0026400Y0105831D01*
X0025699Y0107633D02*
X0024999Y0108333D01*
X0024999Y0109735D01*
X0024298Y0110435D01*
X0023598Y0109735D01*
X0023598Y0107633D01*
X0024298Y0105831D02*
X0023598Y0105131D01*
X0023598Y0103730D01*
X0024298Y0103029D01*
X0026400Y0103029D01*
X0026400Y0101227D02*
X0026400Y0099826D01*
X0026400Y0100527D02*
X0023598Y0100527D01*
X0023598Y0101227D01*
X0022196Y0100527D02*
X0021496Y0100527D01*
X0025699Y0107633D02*
X0026400Y0108333D01*
X0026400Y0110435D01*
X0026400Y0112237D02*
X0026400Y0114339D01*
X0025699Y0115039D01*
X0024999Y0114339D01*
X0024999Y0112237D01*
X0024298Y0112237D02*
X0026400Y0112237D01*
X0024298Y0112237D02*
X0023598Y0112937D01*
X0023598Y0114339D01*
X0023598Y0116841D02*
X0027101Y0116841D01*
X0027801Y0117541D01*
X0027801Y0118242D01*
X0026400Y0118943D02*
X0026400Y0116841D01*
X0026400Y0118943D02*
X0025699Y0119643D01*
X0023598Y0119643D01*
X0024298Y0121445D02*
X0023598Y0122145D01*
X0023598Y0123546D01*
X0024298Y0121445D02*
X0026400Y0121445D01*
X0026400Y0123546D01*
X0025699Y0124247D01*
X0024999Y0123546D01*
X0024999Y0121445D01*
X0025699Y0126049D02*
X0024298Y0126049D01*
X0023598Y0126749D01*
X0023598Y0128851D01*
X0022196Y0128851D02*
X0026400Y0128851D01*
X0026400Y0126749D01*
X0025699Y0126049D01*
X0025699Y0130652D02*
X0024298Y0130652D01*
X0023598Y0131353D01*
X0023598Y0132754D01*
X0024298Y0133455D01*
X0025699Y0133455D01*
X0026400Y0132754D01*
X0026400Y0131353D01*
X0025699Y0130652D01*
X0026400Y0135256D02*
X0024298Y0137358D01*
X0024999Y0138059D02*
X0022196Y0135256D01*
X0022196Y0138059D02*
X0026400Y0138059D01*
X0026400Y0144464D02*
X0023598Y0144464D01*
X0023598Y0147267D02*
X0025699Y0147267D01*
X0026400Y0146566D01*
X0026400Y0144464D01*
X0023598Y0149001D02*
X0023598Y0149702D01*
X0024999Y0151103D01*
X0026400Y0151103D02*
X0023598Y0151103D01*
X0024298Y0152905D02*
X0023598Y0153605D01*
X0023598Y0155007D01*
X0024298Y0155707D01*
X0025699Y0155707D01*
X0026400Y0155007D01*
X0026400Y0153605D01*
X0024999Y0152905D02*
X0024999Y0155707D01*
X0026400Y0157509D02*
X0026400Y0159611D01*
X0025699Y0160311D01*
X0024298Y0160311D01*
X0023598Y0159611D01*
X0023598Y0157509D01*
X0027101Y0157509D01*
X0027801Y0158209D01*
X0027801Y0158910D01*
X0026400Y0161979D02*
X0026400Y0163380D01*
X0026400Y0162680D02*
X0023598Y0162680D01*
X0023598Y0163380D01*
X0022196Y0162680D02*
X0021496Y0162680D01*
X0024298Y0165182D02*
X0023598Y0165883D01*
X0023598Y0167284D01*
X0024298Y0167984D01*
X0024999Y0169786D02*
X0024298Y0170486D01*
X0024298Y0171888D01*
X0023598Y0172588D01*
X0022897Y0172588D01*
X0022196Y0171888D01*
X0022196Y0170486D01*
X0022897Y0169786D01*
X0022196Y0167984D02*
X0026400Y0167984D01*
X0025699Y0169786D02*
X0026400Y0170486D01*
X0026400Y0171888D01*
X0025699Y0172588D01*
X0025699Y0169786D02*
X0024999Y0169786D01*
X0024298Y0165182D02*
X0026400Y0165182D01*
X0029696Y0165682D02*
X0030397Y0165682D01*
X0031798Y0164281D01*
X0033900Y0164281D01*
X0033199Y0167484D02*
X0033900Y0168184D01*
X0033900Y0170286D01*
X0029696Y0170286D01*
X0029696Y0168184D01*
X0030397Y0167484D01*
X0031098Y0167484D01*
X0031798Y0168184D01*
X0031798Y0170286D01*
X0031798Y0168184D02*
X0032499Y0167484D01*
X0033199Y0167484D01*
X0031798Y0164281D02*
X0030397Y0162880D01*
X0029696Y0162880D01*
X0031798Y0161078D02*
X0031798Y0158276D01*
X0031098Y0156474D02*
X0031798Y0155774D01*
X0031798Y0154373D01*
X0032499Y0153672D01*
X0033199Y0153672D01*
X0033900Y0154373D01*
X0033900Y0155774D01*
X0033199Y0156474D01*
X0031098Y0156474D02*
X0030397Y0156474D01*
X0029696Y0155774D01*
X0029696Y0154373D01*
X0030397Y0153672D01*
X0031098Y0151871D02*
X0029696Y0150469D01*
X0031098Y0149068D01*
X0033900Y0149068D01*
X0033900Y0151871D02*
X0031098Y0151871D01*
X0031798Y0151871D02*
X0031798Y0149068D01*
X0037196Y0148167D02*
X0041400Y0148167D01*
X0041400Y0146766D02*
X0041400Y0149569D01*
X0040699Y0151370D02*
X0041400Y0152071D01*
X0041400Y0153472D01*
X0040699Y0154173D01*
X0037897Y0151370D01*
X0040699Y0151370D01*
X0040699Y0154173D02*
X0037897Y0154173D01*
X0037196Y0153472D01*
X0037196Y0152071D01*
X0037897Y0151370D01*
X0038598Y0149569D02*
X0037196Y0148167D01*
X0040699Y0155774D02*
X0041400Y0155774D01*
X0041400Y0156474D01*
X0040699Y0156474D01*
X0040699Y0155774D01*
X0040699Y0158276D02*
X0041400Y0158977D01*
X0041400Y0160378D01*
X0040699Y0161078D01*
X0040699Y0162880D02*
X0041400Y0163581D01*
X0041400Y0164982D01*
X0040699Y0165682D01*
X0037897Y0162880D01*
X0040699Y0162880D01*
X0039298Y0161078D02*
X0038598Y0159677D01*
X0038598Y0158977D01*
X0039298Y0158276D01*
X0040699Y0158276D01*
X0039298Y0161078D02*
X0037196Y0161078D01*
X0037196Y0158276D01*
X0037897Y0162880D02*
X0037196Y0163581D01*
X0037196Y0164982D01*
X0037897Y0165682D01*
X0040699Y0165682D01*
X0040699Y0167284D02*
X0041400Y0167284D01*
X0041400Y0167984D01*
X0040699Y0167984D01*
X0040699Y0167284D01*
X0040699Y0169786D02*
X0039999Y0169786D01*
X0039298Y0170486D01*
X0039298Y0172588D01*
X0040699Y0172588D01*
X0041400Y0171888D01*
X0041400Y0170486D01*
X0040699Y0169786D01*
X0037897Y0171187D02*
X0039298Y0172588D01*
X0037897Y0171187D02*
X0037196Y0169786D01*
X0037196Y0175791D02*
X0041400Y0175791D01*
X0041400Y0177192D02*
X0041400Y0174390D01*
X0038598Y0177192D02*
X0037196Y0175791D01*
X0037897Y0178994D02*
X0037196Y0179694D01*
X0037196Y0181095D01*
X0037897Y0181796D01*
X0040699Y0181796D01*
X0037897Y0178994D01*
X0040699Y0178994D01*
X0041400Y0179694D01*
X0041400Y0181095D01*
X0040699Y0181796D01*
X0041400Y0183598D02*
X0041400Y0186400D01*
X0038598Y0183598D01*
X0037897Y0183598D01*
X0037196Y0184298D01*
X0037196Y0185699D01*
X0037897Y0186400D01*
X0033900Y0185699D02*
X0033900Y0184298D01*
X0033199Y0183598D01*
X0033199Y0181796D02*
X0033900Y0181095D01*
X0033900Y0179694D01*
X0033199Y0178994D01*
X0033199Y0177192D02*
X0033900Y0177192D01*
X0033900Y0176492D01*
X0033199Y0176492D01*
X0033199Y0177192D01*
X0031798Y0177192D02*
X0031798Y0176492D01*
X0031098Y0176492D01*
X0031098Y0177192D01*
X0031798Y0177192D01*
X0030397Y0178994D02*
X0029696Y0179694D01*
X0029696Y0181095D01*
X0030397Y0181796D01*
X0033199Y0181796D01*
X0033900Y0185699D02*
X0033199Y0186400D01*
X0030397Y0186400D01*
X0029696Y0185699D01*
X0029696Y0184298D01*
X0030397Y0183598D01*
X0027801Y0180395D02*
X0027801Y0179694D01*
X0027101Y0178994D01*
X0023598Y0178994D01*
X0023598Y0181796D02*
X0025699Y0181796D01*
X0026400Y0181095D01*
X0026400Y0178994D01*
X0025699Y0183598D02*
X0024999Y0183598D01*
X0024298Y0184298D01*
X0024298Y0186400D01*
X0024298Y0184298D02*
X0023598Y0183598D01*
X0022897Y0183598D01*
X0022196Y0184298D01*
X0022196Y0186400D01*
X0026400Y0186400D01*
X0026400Y0184298D01*
X0025699Y0183598D01*
X0018900Y0184298D02*
X0018199Y0183598D01*
X0016798Y0183598D01*
X0016798Y0184999D01*
X0015397Y0186400D02*
X0018199Y0186400D01*
X0018900Y0185699D01*
X0018900Y0184298D01*
X0018900Y0181796D02*
X0016098Y0181796D01*
X0017499Y0181796D02*
X0016098Y0180395D01*
X0016098Y0179694D01*
X0016798Y0177959D02*
X0016098Y0177259D01*
X0016098Y0175858D01*
X0016798Y0175157D01*
X0018199Y0175157D01*
X0018900Y0175858D01*
X0018900Y0177259D01*
X0018199Y0177959D01*
X0016798Y0177959D01*
X0016098Y0173356D02*
X0018900Y0171954D01*
X0016098Y0170553D01*
X0016798Y0168752D02*
X0016098Y0168051D01*
X0016098Y0166650D01*
X0016798Y0165949D01*
X0017499Y0165949D01*
X0017499Y0168752D01*
X0018199Y0168752D02*
X0016798Y0168752D01*
X0018199Y0168752D02*
X0018900Y0168051D01*
X0018900Y0166650D01*
X0018900Y0159544D02*
X0018900Y0157442D01*
X0018199Y0156741D01*
X0017499Y0156741D01*
X0016798Y0157442D01*
X0016798Y0159544D01*
X0016798Y0157442D02*
X0016098Y0156741D01*
X0015397Y0156741D01*
X0014696Y0157442D01*
X0014696Y0159544D01*
X0018900Y0159544D01*
X0018199Y0154940D02*
X0017499Y0154239D01*
X0017499Y0152137D01*
X0016798Y0152137D02*
X0018900Y0152137D01*
X0018900Y0154239D01*
X0018199Y0154940D01*
X0016098Y0152838D02*
X0016798Y0152137D01*
X0016098Y0152838D02*
X0016098Y0154239D01*
X0016798Y0150336D02*
X0016098Y0149635D01*
X0016098Y0147534D01*
X0017499Y0148234D02*
X0017499Y0149635D01*
X0016798Y0150336D01*
X0017499Y0148234D02*
X0018199Y0147534D01*
X0018900Y0148234D01*
X0018900Y0150336D01*
X0018199Y0145732D02*
X0016798Y0145732D01*
X0016098Y0145031D01*
X0016098Y0143630D01*
X0016798Y0142930D01*
X0017499Y0142930D01*
X0017499Y0145732D01*
X0018199Y0145732D02*
X0018900Y0145031D01*
X0018900Y0143630D01*
X0018900Y0136524D02*
X0018900Y0134422D01*
X0018199Y0133722D01*
X0017499Y0133722D01*
X0016798Y0134422D01*
X0016798Y0136524D01*
X0016798Y0134422D02*
X0016098Y0133722D01*
X0015397Y0133722D01*
X0014696Y0134422D01*
X0014696Y0136524D01*
X0018900Y0136524D01*
X0018199Y0131920D02*
X0016798Y0131920D01*
X0016098Y0131220D01*
X0016098Y0129818D01*
X0016798Y0129118D01*
X0018199Y0129118D01*
X0018900Y0129818D01*
X0018900Y0131220D01*
X0018199Y0131920D01*
X0018199Y0127316D02*
X0017499Y0126616D01*
X0017499Y0124514D01*
X0016798Y0124514D02*
X0018900Y0124514D01*
X0018900Y0126616D01*
X0018199Y0127316D01*
X0016098Y0125215D02*
X0016798Y0124514D01*
X0016098Y0125215D02*
X0016098Y0126616D01*
X0016098Y0122712D02*
X0018900Y0122712D01*
X0018199Y0118876D02*
X0016798Y0118876D01*
X0016098Y0118175D01*
X0016098Y0116073D01*
X0014696Y0116073D02*
X0018900Y0116073D01*
X0018900Y0118175D01*
X0018199Y0118876D01*
X0016098Y0121311D02*
X0017499Y0122712D01*
X0016098Y0121311D02*
X0016098Y0120611D01*
X0024298Y0152905D02*
X0024999Y0152905D01*
X0015397Y0183598D02*
X0014696Y0184298D01*
X0014696Y0185699D01*
X0015397Y0186400D01*
D11*
X0011800Y0209300D02*
X0011800Y0014300D01*
X0014300Y0011800D01*
X0084300Y0011800D01*
X0086800Y0014300D01*
X0086800Y0209300D01*
X0084300Y0211800D01*
X0014300Y0211800D01*
X0011800Y0209300D01*
M02*
