G75*
%MOIN*%
%OFA0B0*%
%FSLAX25Y25*%
%IPPOS*%
%LPD*%
%AMOC8*
5,1,8,0,0,1.08239X$1,22.5*
%
%ADD10C,0.01000*%
%ADD11R,0.05150X0.05150*%
%ADD12C,0.05150*%
%ADD13OC8,0.06000*%
%ADD14C,0.03200*%
%ADD15C,0.01600*%
D10*
X0011800Y0014300D02*
X0011800Y0209300D01*
X0014300Y0211800D01*
X0084300Y0211800D01*
X0086800Y0209300D01*
X0086800Y0014300D01*
X0084300Y0011800D01*
X0014300Y0011800D01*
X0011800Y0014300D01*
X0046800Y0082863D02*
X0046900Y0082900D01*
X0049600Y0082900D01*
X0064900Y0067600D01*
X0064900Y0043300D01*
X0071200Y0037000D01*
X0071800Y0036800D01*
X0060400Y0175600D02*
X0046900Y0175600D01*
X0046800Y0174989D01*
X0060400Y0175600D02*
X0071200Y0186400D01*
X0071800Y0186800D01*
D11*
X0046800Y0174989D03*
X0046800Y0124989D03*
X0046800Y0074989D03*
X0046800Y0024989D03*
D12*
X0046800Y0032863D03*
X0046800Y0040737D03*
X0046800Y0048611D03*
X0046800Y0082863D03*
X0046800Y0090737D03*
X0046800Y0098611D03*
X0046800Y0132863D03*
X0046800Y0140737D03*
X0046800Y0148611D03*
X0046800Y0182863D03*
X0046800Y0190737D03*
X0046800Y0198611D03*
D13*
X0071800Y0196800D03*
X0071800Y0206800D03*
X0071800Y0186800D03*
X0071800Y0176800D03*
X0071800Y0166800D03*
X0071800Y0156800D03*
X0071800Y0146800D03*
X0071800Y0136800D03*
X0071800Y0126800D03*
X0071800Y0116800D03*
X0071800Y0106800D03*
X0071800Y0096800D03*
X0071800Y0086800D03*
X0071800Y0076800D03*
X0071800Y0066800D03*
X0071800Y0056800D03*
X0071800Y0046800D03*
X0071800Y0036800D03*
X0071800Y0026800D03*
X0071800Y0016800D03*
X0081800Y0016800D03*
X0081800Y0026800D03*
X0081800Y0036800D03*
X0081800Y0046800D03*
X0081800Y0056800D03*
X0081800Y0066800D03*
X0081800Y0076800D03*
X0081800Y0086800D03*
X0081800Y0096800D03*
X0081800Y0106800D03*
X0081800Y0116800D03*
X0081800Y0126800D03*
X0081800Y0136800D03*
X0081800Y0146800D03*
X0081800Y0156800D03*
X0081800Y0166800D03*
X0081800Y0176800D03*
X0081800Y0186800D03*
X0081800Y0196800D03*
X0081800Y0206800D03*
D14*
X0071800Y0206800D02*
X0066800Y0206800D01*
X0050737Y0190737D01*
X0046800Y0190737D01*
X0040737Y0190737D01*
X0036800Y0186800D01*
X0036800Y0141800D01*
X0037863Y0140737D01*
X0036800Y0139674D01*
X0036800Y0091800D01*
X0037863Y0090737D01*
X0036800Y0089674D01*
X0036800Y0041800D01*
X0037863Y0040737D01*
X0046800Y0040737D01*
X0046800Y0090737D02*
X0037863Y0090737D01*
X0066800Y0126800D02*
X0052863Y0140737D01*
X0046800Y0140737D01*
X0037863Y0140737D01*
X0066800Y0126800D02*
X0071800Y0126800D01*
D15*
X0068577Y0129800D02*
X0069977Y0131200D01*
X0073623Y0131200D01*
X0076200Y0128623D01*
X0076200Y0124977D01*
X0073623Y0122400D01*
X0069977Y0122400D01*
X0068577Y0123800D01*
X0066203Y0123800D01*
X0065101Y0124257D01*
X0064257Y0125101D01*
X0051620Y0137737D01*
X0049421Y0137737D01*
X0049052Y0137367D01*
X0047682Y0136800D01*
X0049052Y0136233D01*
X0050170Y0135115D01*
X0050775Y0133654D01*
X0050775Y0132072D01*
X0050170Y0130611D01*
X0049052Y0129493D01*
X0047773Y0128964D01*
X0049955Y0128964D01*
X0050775Y0128144D01*
X0050775Y0121834D01*
X0049955Y0121014D01*
X0043645Y0121014D01*
X0042825Y0121834D01*
X0042825Y0128144D01*
X0043645Y0128964D01*
X0045827Y0128964D01*
X0044548Y0129493D01*
X0043430Y0130611D01*
X0042825Y0132072D01*
X0042825Y0133654D01*
X0043430Y0135115D01*
X0044548Y0136233D01*
X0045918Y0136800D01*
X0044548Y0137367D01*
X0044179Y0137737D01*
X0039800Y0137737D01*
X0039800Y0093737D01*
X0044179Y0093737D01*
X0044548Y0094107D01*
X0045409Y0094463D01*
X0045121Y0094557D01*
X0044507Y0094869D01*
X0043950Y0095274D01*
X0043463Y0095761D01*
X0043058Y0096318D01*
X0042746Y0096932D01*
X0042533Y0097587D01*
X0042425Y0098267D01*
X0042425Y0098611D01*
X0046800Y0098611D01*
X0046800Y0098611D01*
X0051175Y0098611D01*
X0051175Y0098267D01*
X0051067Y0097587D01*
X0050854Y0096932D01*
X0050542Y0096318D01*
X0050137Y0095761D01*
X0049650Y0095274D01*
X0049093Y0094869D01*
X0048479Y0094557D01*
X0048191Y0094463D01*
X0049052Y0094107D01*
X0050170Y0092989D01*
X0050775Y0091528D01*
X0050775Y0089946D01*
X0050170Y0088485D01*
X0049052Y0087367D01*
X0047682Y0086800D01*
X0049052Y0086233D01*
X0050170Y0085115D01*
X0050300Y0084800D01*
X0050387Y0084800D01*
X0065687Y0069500D01*
X0066800Y0068387D01*
X0066800Y0044087D01*
X0069832Y0041055D01*
X0069977Y0041200D01*
X0073623Y0041200D01*
X0076200Y0038623D01*
X0076200Y0034977D01*
X0073623Y0032400D01*
X0069977Y0032400D01*
X0067400Y0034977D01*
X0067400Y0038113D01*
X0063000Y0042513D01*
X0063000Y0066813D01*
X0049686Y0080127D01*
X0049052Y0079493D01*
X0047773Y0078964D01*
X0049955Y0078964D01*
X0050775Y0078144D01*
X0050775Y0071834D01*
X0049955Y0071014D01*
X0043645Y0071014D01*
X0042825Y0071834D01*
X0042825Y0078144D01*
X0043645Y0078964D01*
X0045827Y0078964D01*
X0044548Y0079493D01*
X0043430Y0080611D01*
X0042825Y0082072D01*
X0042825Y0083654D01*
X0043430Y0085115D01*
X0044548Y0086233D01*
X0045918Y0086800D01*
X0044548Y0087367D01*
X0044179Y0087737D01*
X0039800Y0087737D01*
X0039800Y0043737D01*
X0044179Y0043737D01*
X0044548Y0044107D01*
X0045409Y0044463D01*
X0045121Y0044557D01*
X0044507Y0044869D01*
X0043950Y0045274D01*
X0043463Y0045761D01*
X0043058Y0046318D01*
X0042746Y0046932D01*
X0042533Y0047587D01*
X0042425Y0048267D01*
X0042425Y0048611D01*
X0046800Y0048611D01*
X0046800Y0048611D01*
X0051175Y0048611D01*
X0051175Y0048267D01*
X0051067Y0047587D01*
X0050854Y0046932D01*
X0050542Y0046318D01*
X0050137Y0045761D01*
X0049650Y0045274D01*
X0049093Y0044869D01*
X0048479Y0044557D01*
X0048191Y0044463D01*
X0049052Y0044107D01*
X0050170Y0042989D01*
X0050775Y0041528D01*
X0050775Y0039946D01*
X0050170Y0038485D01*
X0049052Y0037367D01*
X0047682Y0036800D01*
X0049052Y0036233D01*
X0050170Y0035115D01*
X0050775Y0033654D01*
X0050775Y0032072D01*
X0050170Y0030611D01*
X0049052Y0029493D01*
X0047773Y0028964D01*
X0049955Y0028964D01*
X0050775Y0028144D01*
X0050775Y0021834D01*
X0049955Y0021014D01*
X0043645Y0021014D01*
X0042825Y0021834D01*
X0042825Y0028144D01*
X0043645Y0028964D01*
X0045827Y0028964D01*
X0044548Y0029493D01*
X0043430Y0030611D01*
X0042825Y0032072D01*
X0042825Y0033654D01*
X0043430Y0035115D01*
X0044548Y0036233D01*
X0045918Y0036800D01*
X0044548Y0037367D01*
X0044179Y0037737D01*
X0037266Y0037737D01*
X0036164Y0038194D01*
X0035101Y0039257D01*
X0034257Y0040101D01*
X0033800Y0041203D01*
X0033800Y0090271D01*
X0033993Y0090737D01*
X0033800Y0091203D01*
X0033800Y0140271D01*
X0033993Y0140737D01*
X0033800Y0141203D01*
X0033800Y0187397D01*
X0034257Y0188499D01*
X0039038Y0193280D01*
X0040140Y0193737D01*
X0044179Y0193737D01*
X0044548Y0194107D01*
X0045409Y0194463D01*
X0045121Y0194557D01*
X0044507Y0194869D01*
X0043950Y0195274D01*
X0043463Y0195761D01*
X0043058Y0196318D01*
X0042746Y0196932D01*
X0042533Y0197587D01*
X0042425Y0198267D01*
X0042425Y0198611D01*
X0046800Y0198611D01*
X0046800Y0198611D01*
X0051175Y0198611D01*
X0051175Y0198267D01*
X0051067Y0197587D01*
X0050854Y0196932D01*
X0050542Y0196318D01*
X0050137Y0195761D01*
X0049650Y0195274D01*
X0049093Y0194869D01*
X0048479Y0194557D01*
X0048191Y0194463D01*
X0049052Y0194107D01*
X0049421Y0193737D01*
X0049494Y0193737D01*
X0064257Y0208499D01*
X0065101Y0209343D01*
X0065479Y0209500D01*
X0015253Y0209500D01*
X0014100Y0208347D01*
X0014100Y0015253D01*
X0015253Y0014100D01*
X0067712Y0014100D01*
X0067000Y0014812D01*
X0067000Y0016600D01*
X0071600Y0016600D01*
X0071600Y0017000D01*
X0071600Y0021600D01*
X0069812Y0021600D01*
X0067000Y0018788D01*
X0067000Y0017000D01*
X0071600Y0017000D01*
X0072000Y0017000D01*
X0072000Y0021600D01*
X0073788Y0021600D01*
X0076600Y0018788D01*
X0076600Y0017000D01*
X0072000Y0017000D01*
X0072000Y0016600D01*
X0076600Y0016600D01*
X0076600Y0014812D01*
X0075888Y0014100D01*
X0078277Y0014100D01*
X0077400Y0014977D01*
X0077400Y0018623D01*
X0079977Y0021200D01*
X0083623Y0021200D01*
X0084500Y0020323D01*
X0084500Y0023277D01*
X0083623Y0022400D01*
X0079977Y0022400D01*
X0077400Y0024977D01*
X0077400Y0028623D01*
X0079977Y0031200D01*
X0083623Y0031200D01*
X0084500Y0030323D01*
X0084500Y0033277D01*
X0083623Y0032400D01*
X0079977Y0032400D01*
X0077400Y0034977D01*
X0077400Y0038623D01*
X0079977Y0041200D01*
X0083623Y0041200D01*
X0084500Y0040323D01*
X0084500Y0042712D01*
X0083788Y0042000D01*
X0082000Y0042000D01*
X0082000Y0046600D01*
X0081600Y0046600D01*
X0081600Y0042000D01*
X0079812Y0042000D01*
X0077000Y0044812D01*
X0077000Y0046600D01*
X0081600Y0046600D01*
X0081600Y0047000D01*
X0081600Y0051600D01*
X0079812Y0051600D01*
X0077000Y0048788D01*
X0077000Y0047000D01*
X0081600Y0047000D01*
X0082000Y0047000D01*
X0082000Y0051600D01*
X0083788Y0051600D01*
X0084500Y0050888D01*
X0084500Y0053277D01*
X0083623Y0052400D01*
X0079977Y0052400D01*
X0077400Y0054977D01*
X0077400Y0058623D01*
X0079977Y0061200D01*
X0083623Y0061200D01*
X0084500Y0060323D01*
X0084500Y0062712D01*
X0083788Y0062000D01*
X0082000Y0062000D01*
X0082000Y0066600D01*
X0081600Y0066600D01*
X0081600Y0062000D01*
X0079812Y0062000D01*
X0077000Y0064812D01*
X0077000Y0066600D01*
X0081600Y0066600D01*
X0081600Y0067000D01*
X0081600Y0071600D01*
X0079812Y0071600D01*
X0077000Y0068788D01*
X0077000Y0067000D01*
X0081600Y0067000D01*
X0082000Y0067000D01*
X0082000Y0071600D01*
X0083788Y0071600D01*
X0084500Y0070888D01*
X0084500Y0073277D01*
X0083623Y0072400D01*
X0079977Y0072400D01*
X0077400Y0074977D01*
X0077400Y0078623D01*
X0079977Y0081200D01*
X0083623Y0081200D01*
X0084500Y0080323D01*
X0084500Y0083277D01*
X0083623Y0082400D01*
X0079977Y0082400D01*
X0077400Y0084977D01*
X0077400Y0088623D01*
X0079977Y0091200D01*
X0083623Y0091200D01*
X0084500Y0090323D01*
X0084500Y0093277D01*
X0083623Y0092400D01*
X0079977Y0092400D01*
X0077400Y0094977D01*
X0077400Y0098623D01*
X0079977Y0101200D01*
X0083623Y0101200D01*
X0084500Y0100323D01*
X0084500Y0103277D01*
X0083623Y0102400D01*
X0079977Y0102400D01*
X0077400Y0104977D01*
X0077400Y0108623D01*
X0079977Y0111200D01*
X0083623Y0111200D01*
X0084500Y0110323D01*
X0084500Y0112712D01*
X0083788Y0112000D01*
X0082000Y0112000D01*
X0082000Y0116600D01*
X0081600Y0116600D01*
X0081600Y0112000D01*
X0079812Y0112000D01*
X0077000Y0114812D01*
X0077000Y0116600D01*
X0081600Y0116600D01*
X0081600Y0117000D01*
X0081600Y0121600D01*
X0079812Y0121600D01*
X0077000Y0118788D01*
X0077000Y0117000D01*
X0081600Y0117000D01*
X0082000Y0117000D01*
X0082000Y0121600D01*
X0083788Y0121600D01*
X0084500Y0120888D01*
X0084500Y0123277D01*
X0083623Y0122400D01*
X0079977Y0122400D01*
X0077400Y0124977D01*
X0077400Y0128623D01*
X0079977Y0131200D01*
X0083623Y0131200D01*
X0084500Y0130323D01*
X0084500Y0133277D01*
X0083623Y0132400D01*
X0079977Y0132400D01*
X0077400Y0134977D01*
X0077400Y0138623D01*
X0079977Y0141200D01*
X0083623Y0141200D01*
X0084500Y0140323D01*
X0084500Y0142712D01*
X0083788Y0142000D01*
X0082000Y0142000D01*
X0082000Y0146600D01*
X0081600Y0146600D01*
X0081600Y0142000D01*
X0079812Y0142000D01*
X0077000Y0144812D01*
X0077000Y0146600D01*
X0081600Y0146600D01*
X0081600Y0147000D01*
X0081600Y0151600D01*
X0079812Y0151600D01*
X0077000Y0148788D01*
X0077000Y0147000D01*
X0081600Y0147000D01*
X0082000Y0147000D01*
X0082000Y0151600D01*
X0083788Y0151600D01*
X0084500Y0150888D01*
X0084500Y0153277D01*
X0083623Y0152400D01*
X0079977Y0152400D01*
X0077400Y0154977D01*
X0077400Y0158623D01*
X0079977Y0161200D01*
X0083623Y0161200D01*
X0084500Y0160323D01*
X0084500Y0163277D01*
X0083623Y0162400D01*
X0079977Y0162400D01*
X0077400Y0164977D01*
X0077400Y0168623D01*
X0079977Y0171200D01*
X0083623Y0171200D01*
X0084500Y0170323D01*
X0084500Y0173277D01*
X0083623Y0172400D01*
X0079977Y0172400D01*
X0077400Y0174977D01*
X0077400Y0178623D01*
X0079977Y0181200D01*
X0083623Y0181200D01*
X0084500Y0180323D01*
X0084500Y0182712D01*
X0083788Y0182000D01*
X0082000Y0182000D01*
X0082000Y0186600D01*
X0081600Y0186600D01*
X0081600Y0182000D01*
X0079812Y0182000D01*
X0077000Y0184812D01*
X0077000Y0186600D01*
X0081600Y0186600D01*
X0081600Y0187000D01*
X0081600Y0191600D01*
X0079812Y0191600D01*
X0077000Y0188788D01*
X0077000Y0187000D01*
X0081600Y0187000D01*
X0082000Y0187000D01*
X0082000Y0191600D01*
X0083788Y0191600D01*
X0084500Y0190888D01*
X0084500Y0193277D01*
X0083623Y0192400D01*
X0079977Y0192400D01*
X0077400Y0194977D01*
X0077400Y0198623D01*
X0079977Y0201200D01*
X0083623Y0201200D01*
X0084500Y0200323D01*
X0084500Y0203277D01*
X0083623Y0202400D01*
X0079977Y0202400D01*
X0077400Y0204977D01*
X0077400Y0208623D01*
X0078277Y0209500D01*
X0075323Y0209500D01*
X0076200Y0208623D01*
X0076200Y0204977D01*
X0073623Y0202400D01*
X0069977Y0202400D01*
X0068577Y0203800D01*
X0068043Y0203800D01*
X0052436Y0188194D01*
X0051334Y0187737D01*
X0049421Y0187737D01*
X0049052Y0187367D01*
X0047682Y0186800D01*
X0049052Y0186233D01*
X0050170Y0185115D01*
X0050775Y0183654D01*
X0050775Y0182072D01*
X0050170Y0180611D01*
X0049052Y0179493D01*
X0047773Y0178964D01*
X0049955Y0178964D01*
X0050775Y0178144D01*
X0050775Y0177500D01*
X0059613Y0177500D01*
X0067400Y0185287D01*
X0067400Y0188623D01*
X0069977Y0191200D01*
X0073623Y0191200D01*
X0076200Y0188623D01*
X0076200Y0184977D01*
X0073623Y0182400D01*
X0069977Y0182400D01*
X0069932Y0182445D01*
X0062300Y0174813D01*
X0061187Y0173700D01*
X0050775Y0173700D01*
X0050775Y0171834D01*
X0049955Y0171014D01*
X0043645Y0171014D01*
X0042825Y0171834D01*
X0042825Y0178144D01*
X0043645Y0178964D01*
X0045827Y0178964D01*
X0044548Y0179493D01*
X0043430Y0180611D01*
X0042825Y0182072D01*
X0042825Y0183654D01*
X0043430Y0185115D01*
X0044548Y0186233D01*
X0045918Y0186800D01*
X0044548Y0187367D01*
X0044179Y0187737D01*
X0041980Y0187737D01*
X0039800Y0185557D01*
X0039800Y0143737D01*
X0044179Y0143737D01*
X0044548Y0144107D01*
X0045409Y0144463D01*
X0045121Y0144557D01*
X0044507Y0144869D01*
X0043950Y0145274D01*
X0043463Y0145761D01*
X0043058Y0146318D01*
X0042746Y0146932D01*
X0042533Y0147587D01*
X0042425Y0148267D01*
X0042425Y0148611D01*
X0046800Y0148611D01*
X0046800Y0148611D01*
X0051175Y0148611D01*
X0051175Y0148267D01*
X0051067Y0147587D01*
X0050854Y0146932D01*
X0050542Y0146318D01*
X0050137Y0145761D01*
X0049650Y0145274D01*
X0049093Y0144869D01*
X0048479Y0144557D01*
X0048191Y0144463D01*
X0049052Y0144107D01*
X0049421Y0143737D01*
X0053460Y0143737D01*
X0054562Y0143280D01*
X0068043Y0129800D01*
X0068577Y0129800D01*
X0068867Y0130090D02*
X0067753Y0130090D01*
X0066154Y0131688D02*
X0084500Y0131688D01*
X0084500Y0122097D02*
X0050775Y0122097D01*
X0050775Y0123696D02*
X0068682Y0123696D01*
X0069977Y0121200D02*
X0067400Y0118623D01*
X0067400Y0114977D01*
X0069977Y0112400D01*
X0073623Y0112400D01*
X0076200Y0114977D01*
X0076200Y0118623D01*
X0073623Y0121200D01*
X0069977Y0121200D01*
X0069276Y0120499D02*
X0039800Y0120499D01*
X0039800Y0122097D02*
X0042825Y0122097D01*
X0042825Y0123696D02*
X0039800Y0123696D01*
X0039800Y0125294D02*
X0042825Y0125294D01*
X0042825Y0126893D02*
X0039800Y0126893D01*
X0039800Y0128491D02*
X0043173Y0128491D01*
X0043952Y0130090D02*
X0039800Y0130090D01*
X0039800Y0131688D02*
X0042984Y0131688D01*
X0042825Y0133287D02*
X0039800Y0133287D01*
X0039800Y0134885D02*
X0043335Y0134885D01*
X0045155Y0136484D02*
X0039800Y0136484D01*
X0039800Y0144476D02*
X0045368Y0144476D01*
X0048232Y0144476D02*
X0067901Y0144476D01*
X0067400Y0144977D02*
X0069977Y0142400D01*
X0073623Y0142400D01*
X0076200Y0144977D01*
X0076200Y0148623D01*
X0073623Y0151200D01*
X0069977Y0151200D01*
X0067400Y0148623D01*
X0067400Y0144977D01*
X0067400Y0146075D02*
X0050365Y0146075D01*
X0051081Y0147673D02*
X0067400Y0147673D01*
X0068049Y0149272D02*
X0051125Y0149272D01*
X0051175Y0148955D02*
X0051067Y0149635D01*
X0050854Y0150290D01*
X0050542Y0150904D01*
X0050137Y0151461D01*
X0049650Y0151948D01*
X0049093Y0152353D01*
X0048479Y0152665D01*
X0047824Y0152878D01*
X0047144Y0152986D01*
X0046800Y0152986D01*
X0046456Y0152986D01*
X0045776Y0152878D01*
X0045121Y0152665D01*
X0044507Y0152353D01*
X0043950Y0151948D01*
X0043463Y0151461D01*
X0043058Y0150904D01*
X0042746Y0150290D01*
X0042533Y0149635D01*
X0042425Y0148955D01*
X0042425Y0148611D01*
X0046800Y0148611D01*
X0046800Y0148611D01*
X0051175Y0148611D01*
X0051175Y0148955D01*
X0050559Y0150870D02*
X0069648Y0150870D01*
X0069977Y0152400D02*
X0073623Y0152400D01*
X0076200Y0154977D01*
X0076200Y0158623D01*
X0073623Y0161200D01*
X0069977Y0161200D01*
X0067400Y0158623D01*
X0067400Y0154977D01*
X0069977Y0152400D01*
X0069908Y0152469D02*
X0048865Y0152469D01*
X0046800Y0152469D02*
X0046800Y0152469D01*
X0046800Y0152986D02*
X0046800Y0148611D01*
X0046800Y0148611D01*
X0046800Y0152986D01*
X0046800Y0150870D02*
X0046800Y0150870D01*
X0046800Y0149272D02*
X0046800Y0149272D01*
X0044735Y0152469D02*
X0039800Y0152469D01*
X0039800Y0154068D02*
X0068310Y0154068D01*
X0067400Y0155666D02*
X0039800Y0155666D01*
X0039800Y0157265D02*
X0067400Y0157265D01*
X0067641Y0158863D02*
X0039800Y0158863D01*
X0039800Y0160462D02*
X0069239Y0160462D01*
X0069812Y0162000D02*
X0067000Y0164812D01*
X0067000Y0166600D01*
X0071600Y0166600D01*
X0071600Y0167000D01*
X0071600Y0171600D01*
X0069812Y0171600D01*
X0067000Y0168788D01*
X0067000Y0167000D01*
X0071600Y0167000D01*
X0072000Y0167000D01*
X0072000Y0171600D01*
X0073788Y0171600D01*
X0076600Y0168788D01*
X0076600Y0167000D01*
X0072000Y0167000D01*
X0072000Y0166600D01*
X0076600Y0166600D01*
X0076600Y0164812D01*
X0073788Y0162000D01*
X0072000Y0162000D01*
X0072000Y0166600D01*
X0071600Y0166600D01*
X0071600Y0162000D01*
X0069812Y0162000D01*
X0069752Y0162060D02*
X0039800Y0162060D01*
X0039800Y0163659D02*
X0068153Y0163659D01*
X0067000Y0165257D02*
X0039800Y0165257D01*
X0039800Y0166856D02*
X0071600Y0166856D01*
X0072000Y0166856D02*
X0077400Y0166856D01*
X0077400Y0168454D02*
X0076600Y0168454D01*
X0075336Y0170053D02*
X0078830Y0170053D01*
X0079128Y0173250D02*
X0074472Y0173250D01*
X0073623Y0172400D02*
X0076200Y0174977D01*
X0076200Y0178623D01*
X0073623Y0181200D01*
X0069977Y0181200D01*
X0067400Y0178623D01*
X0067400Y0174977D01*
X0069977Y0172400D01*
X0073623Y0172400D01*
X0072000Y0170053D02*
X0071600Y0170053D01*
X0071600Y0168454D02*
X0072000Y0168454D01*
X0072000Y0165257D02*
X0071600Y0165257D01*
X0071600Y0163659D02*
X0072000Y0163659D01*
X0072000Y0162060D02*
X0071600Y0162060D01*
X0073848Y0162060D02*
X0084500Y0162060D01*
X0084500Y0160462D02*
X0084361Y0160462D01*
X0084500Y0152469D02*
X0083692Y0152469D01*
X0082000Y0150870D02*
X0081600Y0150870D01*
X0081600Y0149272D02*
X0082000Y0149272D01*
X0082000Y0147673D02*
X0081600Y0147673D01*
X0081600Y0146075D02*
X0082000Y0146075D01*
X0082000Y0144476D02*
X0081600Y0144476D01*
X0081600Y0142878D02*
X0082000Y0142878D01*
X0084500Y0141279D02*
X0056563Y0141279D01*
X0058162Y0139681D02*
X0068458Y0139681D01*
X0067400Y0138623D02*
X0067400Y0134977D01*
X0069977Y0132400D01*
X0073623Y0132400D01*
X0076200Y0134977D01*
X0076200Y0138623D01*
X0073623Y0141200D01*
X0069977Y0141200D01*
X0067400Y0138623D01*
X0067400Y0138082D02*
X0059760Y0138082D01*
X0061359Y0136484D02*
X0067400Y0136484D01*
X0067492Y0134885D02*
X0062957Y0134885D01*
X0064556Y0133287D02*
X0069091Y0133287D01*
X0069500Y0142878D02*
X0054965Y0142878D01*
X0052873Y0136484D02*
X0048445Y0136484D01*
X0050265Y0134885D02*
X0054472Y0134885D01*
X0056070Y0133287D02*
X0050775Y0133287D01*
X0050616Y0131688D02*
X0057669Y0131688D01*
X0059268Y0130090D02*
X0049648Y0130090D01*
X0050427Y0128491D02*
X0060866Y0128491D01*
X0062465Y0126893D02*
X0050775Y0126893D01*
X0050775Y0125294D02*
X0064063Y0125294D01*
X0067678Y0118900D02*
X0039800Y0118900D01*
X0039800Y0117302D02*
X0067400Y0117302D01*
X0067400Y0115703D02*
X0039800Y0115703D01*
X0039800Y0114105D02*
X0068273Y0114105D01*
X0069871Y0112506D02*
X0039800Y0112506D01*
X0039800Y0110908D02*
X0069685Y0110908D01*
X0069977Y0111200D02*
X0067400Y0108623D01*
X0067400Y0104977D01*
X0069977Y0102400D01*
X0073623Y0102400D01*
X0076200Y0104977D01*
X0076200Y0108623D01*
X0073623Y0111200D01*
X0069977Y0111200D01*
X0068087Y0109309D02*
X0039800Y0109309D01*
X0039800Y0107711D02*
X0067400Y0107711D01*
X0067400Y0106112D02*
X0039800Y0106112D01*
X0039800Y0104514D02*
X0067864Y0104514D01*
X0069462Y0102915D02*
X0047590Y0102915D01*
X0047824Y0102878D02*
X0047144Y0102986D01*
X0046800Y0102986D01*
X0046456Y0102986D01*
X0045776Y0102878D01*
X0045121Y0102665D01*
X0044507Y0102353D01*
X0043950Y0101948D01*
X0043463Y0101461D01*
X0043058Y0100904D01*
X0042746Y0100290D01*
X0042533Y0099635D01*
X0042425Y0098955D01*
X0042425Y0098611D01*
X0046800Y0098611D01*
X0046800Y0098611D01*
X0051175Y0098611D01*
X0051175Y0098955D01*
X0051067Y0099635D01*
X0050854Y0100290D01*
X0050542Y0100904D01*
X0050137Y0101461D01*
X0049650Y0101948D01*
X0049093Y0102353D01*
X0048479Y0102665D01*
X0047824Y0102878D01*
X0046800Y0102915D02*
X0046800Y0102915D01*
X0046800Y0102986D02*
X0046800Y0098611D01*
X0046800Y0098611D01*
X0046800Y0102986D01*
X0046010Y0102915D02*
X0039800Y0102915D01*
X0039800Y0101317D02*
X0043358Y0101317D01*
X0042560Y0099718D02*
X0039800Y0099718D01*
X0039800Y0098120D02*
X0042448Y0098120D01*
X0042955Y0096521D02*
X0039800Y0096521D01*
X0039800Y0094923D02*
X0044434Y0094923D01*
X0046800Y0099718D02*
X0046800Y0099718D01*
X0046800Y0101317D02*
X0046800Y0101317D01*
X0050242Y0101317D02*
X0084500Y0101317D01*
X0084500Y0102915D02*
X0084138Y0102915D01*
X0083915Y0110908D02*
X0084500Y0110908D01*
X0084500Y0112506D02*
X0084294Y0112506D01*
X0082000Y0112506D02*
X0081600Y0112506D01*
X0081600Y0114105D02*
X0082000Y0114105D01*
X0082000Y0115703D02*
X0081600Y0115703D01*
X0081600Y0117302D02*
X0082000Y0117302D01*
X0082000Y0118900D02*
X0081600Y0118900D01*
X0081600Y0120499D02*
X0082000Y0120499D01*
X0079306Y0112506D02*
X0073729Y0112506D01*
X0073915Y0110908D02*
X0079685Y0110908D01*
X0078087Y0109309D02*
X0075513Y0109309D01*
X0076200Y0107711D02*
X0077400Y0107711D01*
X0077400Y0106112D02*
X0076200Y0106112D01*
X0075736Y0104514D02*
X0077864Y0104514D01*
X0079462Y0102915D02*
X0074138Y0102915D01*
X0073623Y0101200D02*
X0069977Y0101200D01*
X0067400Y0098623D01*
X0067400Y0094977D01*
X0069977Y0092400D01*
X0073623Y0092400D01*
X0076200Y0094977D01*
X0076200Y0098623D01*
X0073623Y0101200D01*
X0075104Y0099718D02*
X0078496Y0099718D01*
X0077400Y0098120D02*
X0076200Y0098120D01*
X0076200Y0096521D02*
X0077400Y0096521D01*
X0077455Y0094923D02*
X0076145Y0094923D01*
X0074547Y0093324D02*
X0079053Y0093324D01*
X0078905Y0090127D02*
X0075261Y0090127D01*
X0076600Y0088788D02*
X0073788Y0091600D01*
X0072000Y0091600D01*
X0072000Y0087000D01*
X0071600Y0087000D01*
X0071600Y0091600D01*
X0069812Y0091600D01*
X0067000Y0088788D01*
X0067000Y0087000D01*
X0071600Y0087000D01*
X0071600Y0086600D01*
X0067000Y0086600D01*
X0067000Y0084812D01*
X0069812Y0082000D01*
X0071600Y0082000D01*
X0071600Y0086600D01*
X0072000Y0086600D01*
X0072000Y0087000D01*
X0076600Y0087000D01*
X0076600Y0088788D01*
X0076600Y0088529D02*
X0077400Y0088529D01*
X0077400Y0086930D02*
X0072000Y0086930D01*
X0072000Y0086600D02*
X0076600Y0086600D01*
X0076600Y0084812D01*
X0073788Y0082000D01*
X0072000Y0082000D01*
X0072000Y0086600D01*
X0071600Y0086930D02*
X0047996Y0086930D01*
X0045604Y0086930D02*
X0039800Y0086930D01*
X0039800Y0085332D02*
X0043647Y0085332D01*
X0042858Y0083733D02*
X0039800Y0083733D01*
X0039800Y0082134D02*
X0042825Y0082134D01*
X0043506Y0080536D02*
X0039800Y0080536D01*
X0039800Y0078937D02*
X0043619Y0078937D01*
X0042825Y0077339D02*
X0039800Y0077339D01*
X0039800Y0075740D02*
X0042825Y0075740D01*
X0042825Y0074142D02*
X0039800Y0074142D01*
X0039800Y0072543D02*
X0042825Y0072543D01*
X0039800Y0070945D02*
X0058868Y0070945D01*
X0057270Y0072543D02*
X0050775Y0072543D01*
X0050775Y0074142D02*
X0055671Y0074142D01*
X0054073Y0075740D02*
X0050775Y0075740D01*
X0050775Y0077339D02*
X0052474Y0077339D01*
X0050876Y0078937D02*
X0049981Y0078937D01*
X0051454Y0083733D02*
X0068079Y0083733D01*
X0069677Y0082134D02*
X0053052Y0082134D01*
X0054651Y0080536D02*
X0069313Y0080536D01*
X0069977Y0081200D02*
X0067400Y0078623D01*
X0067400Y0074977D01*
X0069977Y0072400D01*
X0073623Y0072400D01*
X0076200Y0074977D01*
X0076200Y0078623D01*
X0073623Y0081200D01*
X0069977Y0081200D01*
X0071600Y0082134D02*
X0072000Y0082134D01*
X0072000Y0083733D02*
X0071600Y0083733D01*
X0071600Y0085332D02*
X0072000Y0085332D01*
X0072000Y0088529D02*
X0071600Y0088529D01*
X0071600Y0090127D02*
X0072000Y0090127D01*
X0069053Y0093324D02*
X0049834Y0093324D01*
X0049166Y0094923D02*
X0067455Y0094923D01*
X0067400Y0096521D02*
X0050645Y0096521D01*
X0051151Y0098120D02*
X0067400Y0098120D01*
X0068496Y0099718D02*
X0051040Y0099718D01*
X0050693Y0091726D02*
X0084500Y0091726D01*
X0084500Y0082134D02*
X0073923Y0082134D01*
X0074287Y0080536D02*
X0079313Y0080536D01*
X0078644Y0083733D02*
X0075521Y0083733D01*
X0076600Y0085332D02*
X0077400Y0085332D01*
X0077715Y0078937D02*
X0075885Y0078937D01*
X0076200Y0077339D02*
X0077400Y0077339D01*
X0077400Y0075740D02*
X0076200Y0075740D01*
X0075364Y0074142D02*
X0078236Y0074142D01*
X0079834Y0072543D02*
X0073766Y0072543D01*
X0073623Y0071200D02*
X0069977Y0071200D01*
X0067400Y0068623D01*
X0067400Y0064977D01*
X0069977Y0062400D01*
X0073623Y0062400D01*
X0076200Y0064977D01*
X0076200Y0068623D01*
X0073623Y0071200D01*
X0073878Y0070945D02*
X0079157Y0070945D01*
X0077558Y0069346D02*
X0075476Y0069346D01*
X0076200Y0067748D02*
X0077000Y0067748D01*
X0077000Y0066149D02*
X0076200Y0066149D01*
X0075773Y0064551D02*
X0077261Y0064551D01*
X0078859Y0062952D02*
X0074175Y0062952D01*
X0073623Y0061200D02*
X0069977Y0061200D01*
X0067400Y0058623D01*
X0067400Y0054977D01*
X0069977Y0052400D01*
X0073623Y0052400D01*
X0076200Y0054977D01*
X0076200Y0058623D01*
X0073623Y0061200D01*
X0075067Y0059755D02*
X0078533Y0059755D01*
X0077400Y0058157D02*
X0076200Y0058157D01*
X0076200Y0056558D02*
X0077400Y0056558D01*
X0077418Y0054960D02*
X0076182Y0054960D01*
X0074584Y0053361D02*
X0079016Y0053361D01*
X0078376Y0050164D02*
X0074658Y0050164D01*
X0073623Y0051200D02*
X0069977Y0051200D01*
X0067400Y0048623D01*
X0067400Y0044977D01*
X0069977Y0042400D01*
X0073623Y0042400D01*
X0076200Y0044977D01*
X0076200Y0048623D01*
X0073623Y0051200D01*
X0076200Y0048566D02*
X0077000Y0048566D01*
X0076200Y0046967D02*
X0081600Y0046967D01*
X0081600Y0045369D02*
X0082000Y0045369D01*
X0082000Y0043770D02*
X0081600Y0043770D01*
X0081600Y0042172D02*
X0082000Y0042172D01*
X0083960Y0042172D02*
X0084500Y0042172D01*
X0084500Y0040573D02*
X0084249Y0040573D01*
X0082000Y0048566D02*
X0081600Y0048566D01*
X0081600Y0050164D02*
X0082000Y0050164D01*
X0084500Y0051763D02*
X0066800Y0051763D01*
X0066800Y0053361D02*
X0069016Y0053361D01*
X0067418Y0054960D02*
X0066800Y0054960D01*
X0066800Y0056558D02*
X0067400Y0056558D01*
X0067400Y0058157D02*
X0066800Y0058157D01*
X0066800Y0059755D02*
X0068533Y0059755D01*
X0066800Y0061354D02*
X0084500Y0061354D01*
X0082000Y0062952D02*
X0081600Y0062952D01*
X0081600Y0064551D02*
X0082000Y0064551D01*
X0082000Y0066149D02*
X0081600Y0066149D01*
X0081600Y0067748D02*
X0082000Y0067748D01*
X0082000Y0069346D02*
X0081600Y0069346D01*
X0081600Y0070945D02*
X0082000Y0070945D01*
X0083766Y0072543D02*
X0084500Y0072543D01*
X0084500Y0070945D02*
X0084443Y0070945D01*
X0084500Y0080536D02*
X0084287Y0080536D01*
X0069834Y0072543D02*
X0062644Y0072543D01*
X0064242Y0070945D02*
X0069722Y0070945D01*
X0068124Y0069346D02*
X0065841Y0069346D01*
X0066800Y0067748D02*
X0067400Y0067748D01*
X0067400Y0066149D02*
X0066800Y0066149D01*
X0066800Y0064551D02*
X0067827Y0064551D01*
X0066800Y0062952D02*
X0069425Y0062952D01*
X0068236Y0074142D02*
X0061045Y0074142D01*
X0059447Y0075740D02*
X0067400Y0075740D01*
X0067400Y0077339D02*
X0057848Y0077339D01*
X0056250Y0078937D02*
X0067715Y0078937D01*
X0067000Y0085332D02*
X0049953Y0085332D01*
X0050187Y0088529D02*
X0067000Y0088529D01*
X0068339Y0090127D02*
X0050775Y0090127D01*
X0060467Y0069346D02*
X0039800Y0069346D01*
X0039800Y0067748D02*
X0062065Y0067748D01*
X0063000Y0066149D02*
X0039800Y0066149D01*
X0039800Y0064551D02*
X0063000Y0064551D01*
X0063000Y0062952D02*
X0039800Y0062952D01*
X0039800Y0061354D02*
X0063000Y0061354D01*
X0063000Y0059755D02*
X0039800Y0059755D01*
X0039800Y0058157D02*
X0063000Y0058157D01*
X0063000Y0056558D02*
X0039800Y0056558D01*
X0039800Y0054960D02*
X0063000Y0054960D01*
X0063000Y0053361D02*
X0039800Y0053361D01*
X0039800Y0051763D02*
X0043765Y0051763D01*
X0043950Y0051948D02*
X0043463Y0051461D01*
X0043058Y0050904D01*
X0042746Y0050290D01*
X0042533Y0049635D01*
X0042425Y0048955D01*
X0042425Y0048611D01*
X0046800Y0048611D01*
X0046800Y0048611D01*
X0051175Y0048611D01*
X0051175Y0048955D01*
X0051067Y0049635D01*
X0050854Y0050290D01*
X0050542Y0050904D01*
X0050137Y0051461D01*
X0049650Y0051948D01*
X0049093Y0052353D01*
X0048479Y0052665D01*
X0047824Y0052878D01*
X0047144Y0052986D01*
X0046800Y0052986D01*
X0046456Y0052986D01*
X0045776Y0052878D01*
X0045121Y0052665D01*
X0044507Y0052353D01*
X0043950Y0051948D01*
X0042705Y0050164D02*
X0039800Y0050164D01*
X0039800Y0048566D02*
X0042425Y0048566D01*
X0042734Y0046967D02*
X0039800Y0046967D01*
X0039800Y0045369D02*
X0043855Y0045369D01*
X0044212Y0043770D02*
X0039800Y0043770D01*
X0044093Y0035778D02*
X0014100Y0035778D01*
X0014100Y0037376D02*
X0044540Y0037376D01*
X0043043Y0034179D02*
X0014100Y0034179D01*
X0014100Y0032581D02*
X0042825Y0032581D01*
X0043277Y0030982D02*
X0014100Y0030982D01*
X0014100Y0029384D02*
X0044813Y0029384D01*
X0042825Y0027785D02*
X0014100Y0027785D01*
X0014100Y0026187D02*
X0042825Y0026187D01*
X0042825Y0024588D02*
X0014100Y0024588D01*
X0014100Y0022990D02*
X0042825Y0022990D01*
X0043268Y0021391D02*
X0014100Y0021391D01*
X0014100Y0019793D02*
X0068004Y0019793D01*
X0067000Y0018194D02*
X0014100Y0018194D01*
X0014100Y0016596D02*
X0067000Y0016596D01*
X0067000Y0014997D02*
X0014356Y0014997D01*
X0014100Y0038975D02*
X0035383Y0038975D01*
X0034061Y0040573D02*
X0014100Y0040573D01*
X0014100Y0042172D02*
X0033800Y0042172D01*
X0033800Y0043770D02*
X0014100Y0043770D01*
X0014100Y0045369D02*
X0033800Y0045369D01*
X0033800Y0046967D02*
X0014100Y0046967D01*
X0014100Y0048566D02*
X0033800Y0048566D01*
X0033800Y0050164D02*
X0014100Y0050164D01*
X0014100Y0051763D02*
X0033800Y0051763D01*
X0033800Y0053361D02*
X0014100Y0053361D01*
X0014100Y0054960D02*
X0033800Y0054960D01*
X0033800Y0056558D02*
X0014100Y0056558D01*
X0014100Y0058157D02*
X0033800Y0058157D01*
X0033800Y0059755D02*
X0014100Y0059755D01*
X0014100Y0061354D02*
X0033800Y0061354D01*
X0033800Y0062952D02*
X0014100Y0062952D01*
X0014100Y0064551D02*
X0033800Y0064551D01*
X0033800Y0066149D02*
X0014100Y0066149D01*
X0014100Y0067748D02*
X0033800Y0067748D01*
X0033800Y0069346D02*
X0014100Y0069346D01*
X0014100Y0070945D02*
X0033800Y0070945D01*
X0033800Y0072543D02*
X0014100Y0072543D01*
X0014100Y0074142D02*
X0033800Y0074142D01*
X0033800Y0075740D02*
X0014100Y0075740D01*
X0014100Y0077339D02*
X0033800Y0077339D01*
X0033800Y0078937D02*
X0014100Y0078937D01*
X0014100Y0080536D02*
X0033800Y0080536D01*
X0033800Y0082134D02*
X0014100Y0082134D01*
X0014100Y0083733D02*
X0033800Y0083733D01*
X0033800Y0085332D02*
X0014100Y0085332D01*
X0014100Y0086930D02*
X0033800Y0086930D01*
X0033800Y0088529D02*
X0014100Y0088529D01*
X0014100Y0090127D02*
X0033800Y0090127D01*
X0033800Y0091726D02*
X0014100Y0091726D01*
X0014100Y0093324D02*
X0033800Y0093324D01*
X0033800Y0094923D02*
X0014100Y0094923D01*
X0014100Y0096521D02*
X0033800Y0096521D01*
X0033800Y0098120D02*
X0014100Y0098120D01*
X0014100Y0099718D02*
X0033800Y0099718D01*
X0033800Y0101317D02*
X0014100Y0101317D01*
X0014100Y0102915D02*
X0033800Y0102915D01*
X0033800Y0104514D02*
X0014100Y0104514D01*
X0014100Y0106112D02*
X0033800Y0106112D01*
X0033800Y0107711D02*
X0014100Y0107711D01*
X0014100Y0109309D02*
X0033800Y0109309D01*
X0033800Y0110908D02*
X0014100Y0110908D01*
X0014100Y0112506D02*
X0033800Y0112506D01*
X0033800Y0114105D02*
X0014100Y0114105D01*
X0014100Y0115703D02*
X0033800Y0115703D01*
X0033800Y0117302D02*
X0014100Y0117302D01*
X0014100Y0118900D02*
X0033800Y0118900D01*
X0033800Y0120499D02*
X0014100Y0120499D01*
X0014100Y0122097D02*
X0033800Y0122097D01*
X0033800Y0123696D02*
X0014100Y0123696D01*
X0014100Y0125294D02*
X0033800Y0125294D01*
X0033800Y0126893D02*
X0014100Y0126893D01*
X0014100Y0128491D02*
X0033800Y0128491D01*
X0033800Y0130090D02*
X0014100Y0130090D01*
X0014100Y0131688D02*
X0033800Y0131688D01*
X0033800Y0133287D02*
X0014100Y0133287D01*
X0014100Y0134885D02*
X0033800Y0134885D01*
X0033800Y0136484D02*
X0014100Y0136484D01*
X0014100Y0138082D02*
X0033800Y0138082D01*
X0033800Y0139681D02*
X0014100Y0139681D01*
X0014100Y0141279D02*
X0033800Y0141279D01*
X0033800Y0142878D02*
X0014100Y0142878D01*
X0014100Y0144476D02*
X0033800Y0144476D01*
X0033800Y0146075D02*
X0014100Y0146075D01*
X0014100Y0147673D02*
X0033800Y0147673D01*
X0033800Y0149272D02*
X0014100Y0149272D01*
X0014100Y0150870D02*
X0033800Y0150870D01*
X0033800Y0152469D02*
X0014100Y0152469D01*
X0014100Y0154068D02*
X0033800Y0154068D01*
X0033800Y0155666D02*
X0014100Y0155666D01*
X0014100Y0157265D02*
X0033800Y0157265D01*
X0033800Y0158863D02*
X0014100Y0158863D01*
X0014100Y0160462D02*
X0033800Y0160462D01*
X0033800Y0162060D02*
X0014100Y0162060D01*
X0014100Y0163659D02*
X0033800Y0163659D01*
X0033800Y0165257D02*
X0014100Y0165257D01*
X0014100Y0166856D02*
X0033800Y0166856D01*
X0033800Y0168454D02*
X0014100Y0168454D01*
X0014100Y0170053D02*
X0033800Y0170053D01*
X0033800Y0171651D02*
X0014100Y0171651D01*
X0014100Y0173250D02*
X0033800Y0173250D01*
X0033800Y0174848D02*
X0014100Y0174848D01*
X0014100Y0176447D02*
X0033800Y0176447D01*
X0033800Y0178045D02*
X0014100Y0178045D01*
X0014100Y0179644D02*
X0033800Y0179644D01*
X0033800Y0181242D02*
X0014100Y0181242D01*
X0014100Y0182841D02*
X0033800Y0182841D01*
X0033800Y0184439D02*
X0014100Y0184439D01*
X0014100Y0186038D02*
X0033800Y0186038D01*
X0033899Y0187636D02*
X0014100Y0187636D01*
X0014100Y0189235D02*
X0034992Y0189235D01*
X0036591Y0190833D02*
X0014100Y0190833D01*
X0014100Y0192432D02*
X0038189Y0192432D01*
X0040280Y0186038D02*
X0044354Y0186038D01*
X0044280Y0187636D02*
X0041879Y0187636D01*
X0043151Y0184439D02*
X0039800Y0184439D01*
X0039800Y0182841D02*
X0042825Y0182841D01*
X0043169Y0181242D02*
X0039800Y0181242D01*
X0039800Y0179644D02*
X0044398Y0179644D01*
X0042825Y0178045D02*
X0039800Y0178045D01*
X0039800Y0176447D02*
X0042825Y0176447D01*
X0042825Y0174848D02*
X0039800Y0174848D01*
X0039800Y0173250D02*
X0042825Y0173250D01*
X0043008Y0171651D02*
X0039800Y0171651D01*
X0039800Y0170053D02*
X0068264Y0170053D01*
X0069128Y0173250D02*
X0050775Y0173250D01*
X0050592Y0171651D02*
X0084500Y0171651D01*
X0084472Y0173250D02*
X0084500Y0173250D01*
X0084500Y0181242D02*
X0068729Y0181242D01*
X0068421Y0179644D02*
X0067131Y0179644D01*
X0067400Y0178045D02*
X0065532Y0178045D01*
X0063934Y0176447D02*
X0067400Y0176447D01*
X0067529Y0174848D02*
X0062335Y0174848D01*
X0060158Y0178045D02*
X0050775Y0178045D01*
X0049202Y0179644D02*
X0061757Y0179644D01*
X0063355Y0181242D02*
X0050431Y0181242D01*
X0050775Y0182841D02*
X0064954Y0182841D01*
X0066552Y0184439D02*
X0050449Y0184439D01*
X0049320Y0187636D02*
X0067400Y0187636D01*
X0067400Y0186038D02*
X0049246Y0186038D01*
X0049128Y0194030D02*
X0049788Y0194030D01*
X0050005Y0195629D02*
X0051386Y0195629D01*
X0050950Y0197227D02*
X0052985Y0197227D01*
X0054583Y0198826D02*
X0051175Y0198826D01*
X0051175Y0198955D02*
X0051067Y0199635D01*
X0050854Y0200290D01*
X0050542Y0200904D01*
X0050137Y0201461D01*
X0049650Y0201948D01*
X0049093Y0202353D01*
X0048479Y0202665D01*
X0047824Y0202878D01*
X0047144Y0202986D01*
X0046800Y0202986D01*
X0046800Y0198611D01*
X0046800Y0198611D01*
X0051175Y0198611D01*
X0051175Y0198955D01*
X0050786Y0200424D02*
X0056182Y0200424D01*
X0057780Y0202023D02*
X0049547Y0202023D01*
X0046800Y0202023D02*
X0046800Y0202023D01*
X0046800Y0202986D02*
X0046456Y0202986D01*
X0045776Y0202878D01*
X0045121Y0202665D01*
X0044507Y0202353D01*
X0043950Y0201948D01*
X0043463Y0201461D01*
X0043058Y0200904D01*
X0042746Y0200290D01*
X0042533Y0199635D01*
X0042425Y0198955D01*
X0042425Y0198611D01*
X0046800Y0198611D01*
X0046800Y0198611D01*
X0046800Y0202986D01*
X0046800Y0200424D02*
X0046800Y0200424D01*
X0046800Y0198826D02*
X0046800Y0198826D01*
X0044472Y0194030D02*
X0014100Y0194030D01*
X0014100Y0195629D02*
X0043595Y0195629D01*
X0042650Y0197227D02*
X0014100Y0197227D01*
X0014100Y0198826D02*
X0042425Y0198826D01*
X0042814Y0200424D02*
X0014100Y0200424D01*
X0014100Y0202023D02*
X0044053Y0202023D01*
X0053477Y0189235D02*
X0068012Y0189235D01*
X0069611Y0190833D02*
X0055076Y0190833D01*
X0056674Y0192432D02*
X0069946Y0192432D01*
X0069977Y0192400D02*
X0073623Y0192400D01*
X0076200Y0194977D01*
X0076200Y0198623D01*
X0073623Y0201200D01*
X0069977Y0201200D01*
X0067400Y0198623D01*
X0067400Y0194977D01*
X0069977Y0192400D01*
X0068347Y0194030D02*
X0058273Y0194030D01*
X0059871Y0195629D02*
X0067400Y0195629D01*
X0067400Y0197227D02*
X0061470Y0197227D01*
X0063068Y0198826D02*
X0067603Y0198826D01*
X0069202Y0200424D02*
X0064667Y0200424D01*
X0066265Y0202023D02*
X0084500Y0202023D01*
X0084500Y0200424D02*
X0084398Y0200424D01*
X0084500Y0192432D02*
X0083654Y0192432D01*
X0082000Y0190833D02*
X0081600Y0190833D01*
X0081600Y0189235D02*
X0082000Y0189235D01*
X0082000Y0187636D02*
X0081600Y0187636D01*
X0081600Y0186038D02*
X0082000Y0186038D01*
X0082000Y0184439D02*
X0081600Y0184439D01*
X0081600Y0182841D02*
X0082000Y0182841D01*
X0078971Y0182841D02*
X0074063Y0182841D01*
X0075662Y0184439D02*
X0077373Y0184439D01*
X0077000Y0186038D02*
X0076200Y0186038D01*
X0076200Y0187636D02*
X0077000Y0187636D01*
X0077447Y0189235D02*
X0075588Y0189235D01*
X0073989Y0190833D02*
X0079045Y0190833D01*
X0079946Y0192432D02*
X0073654Y0192432D01*
X0075253Y0194030D02*
X0078347Y0194030D01*
X0077400Y0195629D02*
X0076200Y0195629D01*
X0076200Y0197227D02*
X0077400Y0197227D01*
X0077603Y0198826D02*
X0075997Y0198826D01*
X0074398Y0200424D02*
X0079202Y0200424D01*
X0078756Y0203621D02*
X0074844Y0203621D01*
X0076200Y0205220D02*
X0077400Y0205220D01*
X0077400Y0206818D02*
X0076200Y0206818D01*
X0076200Y0208417D02*
X0077400Y0208417D01*
X0068756Y0203621D02*
X0067864Y0203621D01*
X0064174Y0208417D02*
X0014170Y0208417D01*
X0014100Y0206818D02*
X0062576Y0206818D01*
X0060977Y0205220D02*
X0014100Y0205220D01*
X0014100Y0203621D02*
X0059379Y0203621D01*
X0075179Y0179644D02*
X0078421Y0179644D01*
X0077400Y0178045D02*
X0076200Y0178045D01*
X0076200Y0176447D02*
X0077400Y0176447D01*
X0077529Y0174848D02*
X0076071Y0174848D01*
X0076600Y0165257D02*
X0077400Y0165257D01*
X0078719Y0163659D02*
X0075447Y0163659D01*
X0074361Y0160462D02*
X0079239Y0160462D01*
X0077641Y0158863D02*
X0075959Y0158863D01*
X0076200Y0157265D02*
X0077400Y0157265D01*
X0077400Y0155666D02*
X0076200Y0155666D01*
X0075290Y0154068D02*
X0078310Y0154068D01*
X0079082Y0150870D02*
X0073952Y0150870D01*
X0073692Y0152469D02*
X0079908Y0152469D01*
X0077484Y0149272D02*
X0075551Y0149272D01*
X0076200Y0147673D02*
X0077000Y0147673D01*
X0077000Y0146075D02*
X0076200Y0146075D01*
X0075699Y0144476D02*
X0077335Y0144476D01*
X0078934Y0142878D02*
X0074100Y0142878D01*
X0075142Y0139681D02*
X0078458Y0139681D01*
X0077400Y0138082D02*
X0076200Y0138082D01*
X0076200Y0136484D02*
X0077400Y0136484D01*
X0077492Y0134885D02*
X0076108Y0134885D01*
X0074509Y0133287D02*
X0079091Y0133287D01*
X0078867Y0130090D02*
X0074733Y0130090D01*
X0076200Y0128491D02*
X0077400Y0128491D01*
X0077400Y0126893D02*
X0076200Y0126893D01*
X0076200Y0125294D02*
X0077400Y0125294D01*
X0078682Y0123696D02*
X0074918Y0123696D01*
X0074324Y0120499D02*
X0078711Y0120499D01*
X0077112Y0118900D02*
X0075922Y0118900D01*
X0076200Y0117302D02*
X0077000Y0117302D01*
X0077000Y0115703D02*
X0076200Y0115703D01*
X0075327Y0114105D02*
X0077707Y0114105D01*
X0067000Y0168454D02*
X0039800Y0168454D01*
X0039800Y0150870D02*
X0043041Y0150870D01*
X0042475Y0149272D02*
X0039800Y0149272D01*
X0039800Y0147673D02*
X0042519Y0147673D01*
X0043235Y0146075D02*
X0039800Y0146075D01*
X0046800Y0052986D02*
X0046800Y0048611D01*
X0046800Y0048611D01*
X0046800Y0052986D01*
X0046800Y0051763D02*
X0046800Y0051763D01*
X0046800Y0050164D02*
X0046800Y0050164D01*
X0049835Y0051763D02*
X0063000Y0051763D01*
X0063000Y0050164D02*
X0050895Y0050164D01*
X0051175Y0048566D02*
X0063000Y0048566D01*
X0063000Y0046967D02*
X0050866Y0046967D01*
X0049745Y0045369D02*
X0063000Y0045369D01*
X0063000Y0043770D02*
X0049388Y0043770D01*
X0050508Y0042172D02*
X0063341Y0042172D01*
X0064940Y0040573D02*
X0050775Y0040573D01*
X0050372Y0038975D02*
X0066538Y0038975D01*
X0067400Y0037376D02*
X0049060Y0037376D01*
X0049507Y0035778D02*
X0067400Y0035778D01*
X0068198Y0034179D02*
X0050557Y0034179D01*
X0050775Y0032581D02*
X0069797Y0032581D01*
X0069977Y0031200D02*
X0067400Y0028623D01*
X0067400Y0024977D01*
X0069977Y0022400D01*
X0073623Y0022400D01*
X0076200Y0024977D01*
X0076200Y0028623D01*
X0073623Y0031200D01*
X0069977Y0031200D01*
X0069760Y0030982D02*
X0050323Y0030982D01*
X0050775Y0027785D02*
X0067400Y0027785D01*
X0067400Y0026187D02*
X0050775Y0026187D01*
X0050775Y0024588D02*
X0067789Y0024588D01*
X0069388Y0022990D02*
X0050775Y0022990D01*
X0050332Y0021391D02*
X0069603Y0021391D01*
X0071600Y0021391D02*
X0072000Y0021391D01*
X0072000Y0019793D02*
X0071600Y0019793D01*
X0071600Y0018194D02*
X0072000Y0018194D01*
X0073997Y0021391D02*
X0084500Y0021391D01*
X0084500Y0022990D02*
X0084212Y0022990D01*
X0084500Y0030982D02*
X0083840Y0030982D01*
X0083803Y0032581D02*
X0084500Y0032581D01*
X0079797Y0032581D02*
X0073803Y0032581D01*
X0073840Y0030982D02*
X0079760Y0030982D01*
X0078161Y0029384D02*
X0075439Y0029384D01*
X0076200Y0027785D02*
X0077400Y0027785D01*
X0077400Y0026187D02*
X0076200Y0026187D01*
X0075811Y0024588D02*
X0077789Y0024588D01*
X0079388Y0022990D02*
X0074212Y0022990D01*
X0075596Y0019793D02*
X0078570Y0019793D01*
X0077400Y0018194D02*
X0076600Y0018194D01*
X0076600Y0016596D02*
X0077400Y0016596D01*
X0077400Y0014997D02*
X0076600Y0014997D01*
X0068161Y0029384D02*
X0048787Y0029384D01*
X0066800Y0045369D02*
X0067400Y0045369D01*
X0067400Y0046967D02*
X0066800Y0046967D01*
X0066800Y0048566D02*
X0067400Y0048566D01*
X0066800Y0050164D02*
X0068942Y0050164D01*
X0068607Y0043770D02*
X0067117Y0043770D01*
X0068715Y0042172D02*
X0079640Y0042172D01*
X0079351Y0040573D02*
X0074249Y0040573D01*
X0075848Y0038975D02*
X0077752Y0038975D01*
X0077400Y0037376D02*
X0076200Y0037376D01*
X0076200Y0035778D02*
X0077400Y0035778D01*
X0078198Y0034179D02*
X0075402Y0034179D01*
X0074993Y0043770D02*
X0078042Y0043770D01*
X0077000Y0045369D02*
X0076200Y0045369D01*
M02*
