G75*
%MOIN*%
%OFA0B0*%
%FSLAX25Y25*%
%IPPOS*%
%LPD*%
%AMOC8*
5,1,8,0,0,1.08239X$1,22.5*
%
%ADD10C,0.01000*%
%ADD11R,0.05550X0.05550*%
%ADD12C,0.05550*%
%ADD13OC8,0.06400*%
D10*
X0011800Y0014300D02*
X0011800Y0209300D01*
X0014300Y0211800D01*
X0084300Y0211800D01*
X0086800Y0209300D01*
X0086800Y0014300D01*
X0084300Y0011800D01*
X0014300Y0011800D01*
X0011800Y0014300D01*
D11*
X0046800Y0024989D03*
X0046800Y0074989D03*
X0046800Y0124989D03*
X0046800Y0174989D03*
D12*
X0046800Y0182863D03*
X0046800Y0190737D03*
X0046800Y0198611D03*
X0046800Y0148611D03*
X0046800Y0140737D03*
X0046800Y0132863D03*
X0046800Y0098611D03*
X0046800Y0090737D03*
X0046800Y0082863D03*
X0046800Y0048611D03*
X0046800Y0040737D03*
X0046800Y0032863D03*
D13*
X0071800Y0036800D03*
X0071800Y0046800D03*
X0071800Y0056800D03*
X0071800Y0066800D03*
X0071800Y0076800D03*
X0071800Y0086800D03*
X0071800Y0096800D03*
X0071800Y0106800D03*
X0071800Y0116800D03*
X0071800Y0126800D03*
X0071800Y0136800D03*
X0071800Y0146800D03*
X0071800Y0156800D03*
X0071800Y0166800D03*
X0071800Y0176800D03*
X0071800Y0186800D03*
X0071800Y0196800D03*
X0071800Y0206800D03*
X0081800Y0206800D03*
X0081800Y0196800D03*
X0081800Y0186800D03*
X0081800Y0176800D03*
X0081800Y0166800D03*
X0081800Y0156800D03*
X0081800Y0146800D03*
X0081800Y0136800D03*
X0081800Y0126800D03*
X0081800Y0116800D03*
X0081800Y0106800D03*
X0081800Y0096800D03*
X0081800Y0086800D03*
X0081800Y0076800D03*
X0081800Y0066800D03*
X0081800Y0056800D03*
X0081800Y0046800D03*
X0081800Y0036800D03*
X0081800Y0026800D03*
X0081800Y0016800D03*
X0071800Y0016800D03*
X0071800Y0026800D03*
M02*
