G75*
%MOIN*%
%OFA0B0*%
%FSLAX25Y25*%
%IPPOS*%
%LPD*%
%AMOC8*
5,1,8,0,0,1.08239X$1,22.5*
%
%ADD10C,0.01100*%
%ADD11C,0.00600*%
%ADD12C,0.01000*%
%ADD13C,0.00500*%
D10*
X0055345Y0017350D02*
X0055345Y0020303D01*
X0056329Y0021287D01*
X0057313Y0021287D01*
X0058297Y0020303D01*
X0058297Y0017350D01*
X0058297Y0020303D02*
X0059282Y0021287D01*
X0060266Y0021287D01*
X0061250Y0020303D01*
X0061250Y0017350D01*
X0055345Y0017350D01*
X0056329Y0023795D02*
X0060266Y0023795D01*
X0061250Y0024780D01*
X0061250Y0026748D01*
X0060266Y0027732D01*
X0061250Y0030241D02*
X0055345Y0030241D01*
X0057313Y0032209D01*
X0055345Y0034178D01*
X0061250Y0034178D01*
X0061250Y0036686D02*
X0061250Y0040623D01*
X0061250Y0038655D02*
X0055345Y0038655D01*
X0057313Y0036686D01*
X0056329Y0043132D02*
X0055345Y0044116D01*
X0055345Y0046085D01*
X0056329Y0047069D01*
X0057313Y0047069D01*
X0058297Y0046085D01*
X0059282Y0047069D01*
X0060266Y0047069D01*
X0061250Y0046085D01*
X0061250Y0044116D01*
X0060266Y0043132D01*
X0058297Y0045100D02*
X0058297Y0046085D01*
X0056329Y0027732D02*
X0055345Y0026748D01*
X0055345Y0024780D01*
X0056329Y0023795D01*
X0055345Y0067350D02*
X0055345Y0070303D01*
X0056329Y0071287D01*
X0057313Y0071287D01*
X0058297Y0070303D01*
X0058297Y0067350D01*
X0058297Y0070303D02*
X0059282Y0071287D01*
X0060266Y0071287D01*
X0061250Y0070303D01*
X0061250Y0067350D01*
X0055345Y0067350D01*
X0056329Y0073795D02*
X0055345Y0074780D01*
X0055345Y0076748D01*
X0056329Y0077732D01*
X0055345Y0080241D02*
X0057313Y0082209D01*
X0055345Y0084178D01*
X0061250Y0084178D01*
X0061250Y0086686D02*
X0061250Y0090623D01*
X0061250Y0088655D02*
X0055345Y0088655D01*
X0057313Y0086686D01*
X0057313Y0093132D02*
X0056329Y0093132D01*
X0055345Y0094116D01*
X0055345Y0096085D01*
X0056329Y0097069D01*
X0057313Y0097069D01*
X0058297Y0096085D01*
X0058297Y0094116D01*
X0057313Y0093132D01*
X0058297Y0094116D02*
X0059282Y0093132D01*
X0060266Y0093132D01*
X0061250Y0094116D01*
X0061250Y0096085D01*
X0060266Y0097069D01*
X0059282Y0097069D01*
X0058297Y0096085D01*
X0061250Y0080241D02*
X0055345Y0080241D01*
X0056329Y0073795D02*
X0060266Y0073795D01*
X0061250Y0074780D01*
X0061250Y0076748D01*
X0060266Y0077732D01*
X0061250Y0117350D02*
X0061250Y0119318D01*
X0061250Y0118334D02*
X0055345Y0118334D01*
X0055345Y0117350D02*
X0055345Y0119318D01*
X0056329Y0121647D02*
X0055345Y0122631D01*
X0055345Y0124600D01*
X0056329Y0125584D01*
X0057313Y0125584D01*
X0061250Y0121647D01*
X0061250Y0125584D01*
X0060266Y0128092D02*
X0061250Y0129077D01*
X0061250Y0131045D01*
X0060266Y0132029D01*
X0060266Y0128092D02*
X0056329Y0128092D01*
X0055345Y0129077D01*
X0055345Y0131045D01*
X0056329Y0132029D01*
X0055345Y0167350D02*
X0055345Y0169318D01*
X0055345Y0168334D02*
X0061250Y0168334D01*
X0061250Y0167350D02*
X0061250Y0169318D01*
X0061250Y0171647D02*
X0057313Y0175584D01*
X0056329Y0175584D01*
X0055345Y0174600D01*
X0055345Y0172631D01*
X0056329Y0171647D01*
X0056329Y0178092D02*
X0060266Y0178092D01*
X0061250Y0179077D01*
X0061250Y0181045D01*
X0060266Y0182029D01*
X0061250Y0175584D02*
X0061250Y0171647D01*
X0056329Y0178092D02*
X0055345Y0179077D01*
X0055345Y0181045D01*
X0056329Y0182029D01*
D11*
X0058097Y0184600D02*
X0058097Y0186301D01*
X0058664Y0186869D01*
X0059231Y0186869D01*
X0059799Y0186301D01*
X0059799Y0184600D01*
X0059799Y0186301D02*
X0060366Y0186869D01*
X0060933Y0186869D01*
X0061500Y0186301D01*
X0061500Y0184600D01*
X0058097Y0184600D01*
X0058664Y0188283D02*
X0058097Y0188850D01*
X0058097Y0189985D01*
X0058664Y0190552D01*
X0058097Y0191966D02*
X0059231Y0193101D01*
X0058097Y0194235D01*
X0061500Y0194235D01*
X0060933Y0195649D02*
X0061500Y0196217D01*
X0061500Y0197351D01*
X0060933Y0197918D01*
X0060366Y0197918D01*
X0059799Y0197351D01*
X0059799Y0196784D01*
X0059799Y0197351D02*
X0059231Y0197918D01*
X0058664Y0197918D01*
X0058097Y0197351D01*
X0058097Y0196217D01*
X0058664Y0195649D01*
X0058097Y0191966D02*
X0061500Y0191966D01*
X0060933Y0190552D02*
X0061500Y0189985D01*
X0061500Y0188850D01*
X0060933Y0188283D01*
X0058664Y0188283D01*
X0061500Y0199333D02*
X0058097Y0201601D01*
X0058664Y0203016D02*
X0058097Y0203583D01*
X0058097Y0204717D01*
X0058664Y0205284D01*
X0059231Y0205284D01*
X0061500Y0203016D01*
X0061500Y0205284D01*
X0066800Y0204300D02*
X0069300Y0201800D01*
X0084300Y0201800D01*
X0086800Y0199300D01*
X0086800Y0194300D01*
X0084300Y0191800D01*
X0069300Y0191800D01*
X0066800Y0189300D01*
X0066800Y0184300D01*
X0069300Y0181800D01*
X0084300Y0181800D01*
X0086800Y0179300D01*
X0086800Y0174300D01*
X0084300Y0171800D01*
X0069300Y0171800D01*
X0066800Y0169300D01*
X0066800Y0164300D01*
X0069300Y0161800D01*
X0084300Y0161800D01*
X0086800Y0159300D01*
X0086800Y0154300D01*
X0084300Y0151800D01*
X0069300Y0151800D01*
X0066800Y0149300D01*
X0066800Y0144300D01*
X0069300Y0141800D01*
X0084300Y0141800D01*
X0086800Y0139300D01*
X0086800Y0134300D01*
X0084300Y0131800D01*
X0069300Y0131800D01*
X0066800Y0134300D01*
X0066800Y0139300D01*
X0069300Y0141800D01*
X0069300Y0151800D02*
X0066800Y0154300D01*
X0066800Y0159300D01*
X0069300Y0161800D01*
X0069300Y0171800D02*
X0066800Y0174300D01*
X0066800Y0179300D01*
X0069300Y0181800D01*
X0069300Y0191800D02*
X0066800Y0194300D01*
X0066800Y0199300D01*
X0069300Y0201800D01*
X0066800Y0204300D02*
X0066800Y0209300D01*
X0069300Y0211800D01*
X0084300Y0211800D01*
X0086800Y0209300D01*
X0086800Y0204300D01*
X0084300Y0201800D01*
X0084300Y0191800D02*
X0086800Y0189300D01*
X0086800Y0184300D01*
X0084300Y0181800D01*
X0084300Y0171800D02*
X0086800Y0169300D01*
X0086800Y0164300D01*
X0084300Y0161800D01*
X0084300Y0151800D02*
X0086800Y0149300D01*
X0086800Y0144300D01*
X0084300Y0141800D01*
X0084300Y0131800D02*
X0086800Y0129300D01*
X0086800Y0124300D01*
X0084300Y0121800D01*
X0069300Y0121800D01*
X0066800Y0124300D01*
X0066800Y0129300D01*
X0069300Y0131800D01*
X0069300Y0121800D02*
X0066800Y0119300D01*
X0066800Y0114300D01*
X0069300Y0111800D01*
X0084300Y0111800D01*
X0086800Y0109300D01*
X0086800Y0104300D01*
X0084300Y0101800D01*
X0069300Y0101800D01*
X0066800Y0104300D01*
X0066800Y0109300D01*
X0069300Y0111800D01*
X0069300Y0101800D02*
X0066800Y0099300D01*
X0066800Y0094300D01*
X0069300Y0091800D01*
X0084300Y0091800D01*
X0086800Y0089300D01*
X0086800Y0084300D01*
X0084300Y0081800D01*
X0069300Y0081800D01*
X0066800Y0084300D01*
X0066800Y0089300D01*
X0069300Y0091800D01*
X0069300Y0081800D02*
X0066800Y0079300D01*
X0066800Y0074300D01*
X0069300Y0071800D01*
X0084300Y0071800D01*
X0086800Y0069300D01*
X0086800Y0064300D01*
X0084300Y0061800D01*
X0069300Y0061800D01*
X0066800Y0064300D01*
X0066800Y0069300D01*
X0069300Y0071800D01*
X0069300Y0061800D02*
X0066800Y0059300D01*
X0066800Y0054300D01*
X0069300Y0051800D01*
X0084300Y0051800D01*
X0086800Y0049300D01*
X0086800Y0044300D01*
X0084300Y0041800D01*
X0069300Y0041800D01*
X0066800Y0044300D01*
X0066800Y0049300D01*
X0069300Y0051800D01*
X0069300Y0041800D02*
X0066800Y0039300D01*
X0066800Y0034300D01*
X0069300Y0031800D01*
X0084300Y0031800D01*
X0086800Y0029300D01*
X0086800Y0024300D01*
X0084300Y0021800D01*
X0086800Y0019300D01*
X0086800Y0014300D01*
X0084300Y0011800D01*
X0069300Y0011800D01*
X0066800Y0014300D01*
X0066800Y0019300D01*
X0069300Y0021800D01*
X0084300Y0021800D01*
X0084300Y0031800D02*
X0086800Y0034300D01*
X0086800Y0039300D01*
X0084300Y0041800D01*
X0084300Y0051800D02*
X0086800Y0054300D01*
X0086800Y0059300D01*
X0084300Y0061800D01*
X0084300Y0071800D02*
X0086800Y0074300D01*
X0086800Y0079300D01*
X0084300Y0081800D01*
X0084300Y0091800D02*
X0086800Y0094300D01*
X0086800Y0099300D01*
X0084300Y0101800D01*
X0084300Y0111800D02*
X0086800Y0114300D01*
X0086800Y0119300D01*
X0084300Y0121800D01*
X0061500Y0134600D02*
X0061500Y0136301D01*
X0060933Y0136869D01*
X0060366Y0136869D01*
X0059799Y0136301D01*
X0059799Y0134600D01*
X0059799Y0136301D02*
X0059231Y0136869D01*
X0058664Y0136869D01*
X0058097Y0136301D01*
X0058097Y0134600D01*
X0061500Y0134600D01*
X0060933Y0138283D02*
X0061500Y0138850D01*
X0061500Y0139985D01*
X0060933Y0140552D01*
X0061500Y0141966D02*
X0058097Y0141966D01*
X0059231Y0143101D01*
X0058097Y0144235D01*
X0061500Y0144235D01*
X0060933Y0145649D02*
X0061500Y0146217D01*
X0061500Y0147351D01*
X0060933Y0147918D01*
X0060366Y0147918D01*
X0059799Y0147351D01*
X0059799Y0146784D01*
X0059799Y0147351D02*
X0059231Y0147918D01*
X0058664Y0147918D01*
X0058097Y0147351D01*
X0058097Y0146217D01*
X0058664Y0145649D01*
X0061500Y0149333D02*
X0058097Y0151601D01*
X0058664Y0153016D02*
X0058097Y0153583D01*
X0058097Y0154717D01*
X0058664Y0155284D01*
X0059231Y0155284D01*
X0061500Y0153016D01*
X0061500Y0155284D01*
X0058664Y0140552D02*
X0058097Y0139985D01*
X0058097Y0138850D01*
X0058664Y0138283D01*
X0060933Y0138283D01*
X0060933Y0109235D02*
X0058664Y0109235D01*
X0058097Y0108668D01*
X0058097Y0107533D01*
X0058664Y0106966D01*
X0059231Y0106966D01*
X0059799Y0107533D01*
X0059799Y0109235D01*
X0060933Y0109235D02*
X0061500Y0108668D01*
X0061500Y0107533D01*
X0060933Y0106966D01*
X0061500Y0105552D02*
X0061500Y0103283D01*
X0061500Y0104417D02*
X0058097Y0104417D01*
X0059231Y0103283D01*
X0058097Y0101869D02*
X0061500Y0099600D01*
X0059799Y0059235D02*
X0059799Y0056966D01*
X0058097Y0058668D01*
X0061500Y0058668D01*
X0061500Y0055552D02*
X0061500Y0053283D01*
X0061500Y0054417D02*
X0058097Y0054417D01*
X0059231Y0053283D01*
X0058097Y0051869D02*
X0061500Y0049600D01*
X0069300Y0031800D02*
X0066800Y0029300D01*
X0066800Y0024300D01*
X0069300Y0021800D01*
X0034000Y0020734D02*
X0033433Y0021301D01*
X0030597Y0021301D01*
X0030597Y0020734D02*
X0030597Y0021869D01*
X0032299Y0023283D02*
X0032299Y0025552D01*
X0034000Y0024985D02*
X0030597Y0024985D01*
X0032299Y0023283D01*
X0034000Y0020734D02*
X0034000Y0020167D01*
X0033433Y0019600D01*
X0033433Y0069600D02*
X0034000Y0070167D01*
X0034000Y0070734D01*
X0033433Y0071301D01*
X0030597Y0071301D01*
X0030597Y0070734D02*
X0030597Y0071869D01*
X0031164Y0073283D02*
X0030597Y0073850D01*
X0030597Y0074985D01*
X0031164Y0075552D01*
X0031731Y0075552D01*
X0032299Y0074985D01*
X0032866Y0075552D01*
X0033433Y0075552D01*
X0034000Y0074985D01*
X0034000Y0073850D01*
X0033433Y0073283D01*
X0032299Y0074417D02*
X0032299Y0074985D01*
X0033433Y0119600D02*
X0034000Y0120167D01*
X0034000Y0120734D01*
X0033433Y0121301D01*
X0030597Y0121301D01*
X0030597Y0120734D02*
X0030597Y0121869D01*
X0031164Y0123283D02*
X0030597Y0123850D01*
X0030597Y0124985D01*
X0031164Y0125552D01*
X0031731Y0125552D01*
X0034000Y0123283D01*
X0034000Y0125552D01*
X0033433Y0169600D02*
X0034000Y0170167D01*
X0034000Y0170734D01*
X0033433Y0171301D01*
X0030597Y0171301D01*
X0030597Y0170734D02*
X0030597Y0171869D01*
X0031731Y0173283D02*
X0030597Y0174417D01*
X0034000Y0174417D01*
X0034000Y0173283D02*
X0034000Y0175552D01*
D12*
X0011800Y0209300D02*
X0011800Y0014300D01*
X0014300Y0011800D01*
X0084300Y0011800D01*
X0086800Y0014300D01*
X0086800Y0209300D01*
X0084300Y0211800D01*
X0014300Y0211800D01*
X0011800Y0209300D01*
X0013729Y0206485D02*
X0013729Y0197824D01*
X0017666Y0197824D01*
X0017666Y0175776D01*
X0013729Y0175776D01*
X0013729Y0167115D01*
X0040501Y0167115D01*
X0040501Y0206485D01*
X0013729Y0206485D01*
X0013729Y0156485D02*
X0013729Y0147824D01*
X0017666Y0147824D01*
X0017666Y0125776D01*
X0013729Y0125776D01*
X0013729Y0117115D01*
X0040501Y0117115D01*
X0040501Y0156485D01*
X0013729Y0156485D01*
X0013729Y0106485D02*
X0013729Y0097824D01*
X0017666Y0097824D01*
X0017666Y0075776D01*
X0013729Y0075776D01*
X0013729Y0067115D01*
X0040501Y0067115D01*
X0040501Y0106485D01*
X0013729Y0106485D01*
X0013729Y0056485D02*
X0013729Y0047824D01*
X0017666Y0047824D01*
X0017666Y0025776D01*
X0013729Y0025776D01*
X0013729Y0017115D01*
X0040501Y0017115D01*
X0040501Y0056485D01*
X0013729Y0056485D01*
X0040501Y0056485D02*
X0052706Y0056485D01*
X0052706Y0017115D01*
X0040501Y0017115D01*
X0040501Y0067115D02*
X0052706Y0067115D01*
X0052706Y0106485D01*
X0040501Y0106485D01*
X0040501Y0117115D02*
X0052706Y0117115D01*
X0052706Y0156485D01*
X0040501Y0156485D01*
X0040501Y0167115D02*
X0052706Y0167115D01*
X0052706Y0206485D01*
X0040501Y0206485D01*
D13*
X0042863Y0167115D02*
X0050737Y0167115D01*
X0050737Y0117115D02*
X0042863Y0117115D01*
X0042863Y0067115D02*
X0050737Y0067115D01*
X0050737Y0017115D02*
X0042863Y0017115D01*
M02*
