%
M48
M72
T01C0.0315
T02C0.0400
%
T01
X4680Y19861
X4680Y19074
X4680Y18286
X4680Y17499
X4680Y14861
X4680Y14074
X4680Y13286
X4680Y12499
X4680Y9861
X4680Y9074
X4680Y8286
X4680Y7499
X4680Y4861
X4680Y4074
X4680Y3286
X4680Y2499
T02
X7180Y20680
X7180Y19680
X7180Y18680
X7180Y17680
X7180Y16680
X7180Y15680
X7180Y14680
X7180Y13680
X7180Y12680
X7180Y11680
X7180Y10680
X7180Y9680
X7180Y8680
X7180Y7680
X7180Y6680
X7180Y5680
X7180Y4680
X7180Y3680
X7180Y2680
X7180Y1680
X8180Y1680
X8180Y2680
X8180Y3680
X8180Y4680
X8180Y5680
X8180Y6680
X8180Y7680
X8180Y8680
X8180Y9680
X8180Y10680
X8180Y11680
X8180Y12680
X8180Y13680
X8180Y14680
X8180Y15680
X8180Y16680
X8180Y17680
X8180Y18680
X8180Y19680
X8180Y20680
M30
